PathFileType	4	(X/Y/Z)	C:/Users/beibeiliu/ov580/test_trc\sequence.32_training_dense_right.trc
DataRate	CameraRate	NumFrames	NumMarkers	Units	OrigDataRate	OrigDataStartFrame	OrigNumFrames
120	120	24	19	mm	120	272	310
Frame#	Time	ThumbCMC			ThumbMCP			ThumbIP			ThumbTip			IndexMCP			IndexPIP			IndexTip			MiddleMCP			MiddlePIP			MiddleTip			RingMCP			RingPIP			RingTip			PinkyMCP			PinkyPIP			PinkyTip			BackHand1			BackHand2			BackHand3	
		X0	Y0	Z0	X1	Y1	Z1	X2	Y2	Z2	X3	Y3	Z3	X4	Y4	Z4	X5	Y5	Z5	X6	Y6	Z6	X7	Y7	Z7	X8	Y8	Z8	X9	Y9	Z9	X10	Y10	Z10	X11	Y11	Z11	X12	Y12	Z12	X13	Y13	Z13	X14	Y14	Z14	X15	Y15	Z15	X16	Y16	Z16	X17	Y17	Z17	X18	Y18	Z18	
271	2.25833	159.268	34.6431	14.5366	148.458	17.0275	-8.94722	145.976	8.38965	-29.5992	151.873	1.97003	-51.9573	165.934	46.8785	-49.3098	164.996	23.7506	-66.2183	171.657	-3.80449	-53.615	188.026	55.5369	-53.8646	189.954	46.7975	-80.4792	188.347	23.5495	-97.5012	210.159	54.4879	-44.4204	215.703	51.7682	-71.7639	212.344	44.3232	-92.4493	228.311	46.8975	-30.1461	239.962	49.7618	-48.422	244.843	57.3683	-61.8866	206.853	58.4601	-3.95297	210.683	54.5238	25.894	181.004	61.8046	11.2891	
272	2.26667	160.405	34.486	11.1322	152.616	17.3299	-10.1479	150.484	9.08133	-32.1686	151.203	-1.04246	-49.2323	163.773	44.8631	-48.9358	166.507	21.3182	-66.9017	168.78	-3.96062	-56.2034	190.868	53.739	-57.4449	188.752	42.062	-82.9875	186.809	15.0103	-99.2257	207.648	53.0718	-45.1979	214.779	50.271	-74.0891	211.245	41.6519	-91.7495	230.991	46.0732	-33.8369	240.286	48.2263	-49.1904	248.218	53.9059	-64.4022	206.269	55.3099	-4.38682	208.195	58.4313	21.617	185.293	60.1673	9.14315	
273	2.275	160.207	34.013	14.0334	154.087	16.5209	-10.8342	147.977	4.43628	-27.9778	148.57	-5.13934	-49.9309	164.984	42.4762	-49.9766	163.274	18.6043	-66.1724	169.943	-6.82569	-54.8275	189.964	50.4269	-55.6917	187.173	36.1933	-84.0979	186.235	13.5916	-96.8108	209.948	49.8338	-49.6402	212.805	45.7254	-73.591	208.01	36.0498	-95.4458	230.384	43.0417	-31.3576	234.512	46.5083	-48.5297	243.791	51.3918	-62.1404	204.925	56.0396	-1.85438	206.747	56.1179	18.684	182.975	59.6268	4.24414	
274	2.28333	161.88	33.8596	16.0154	153.593	14.3717	-5.00102	147.479	1.45491	-30.3423	151.539	-8.90414	-46.7003	162.262	36.6196	-52.6474	164.305	13.2803	-64.9868	164.938	-12.3351	-52.9131	186.171	45.277	-59.8404	186.912	30.3325	-83.3966	183.209	5.72022	-96.6491	210.838	47.2236	-52.3213	209.514	42.6155	-71.2487	211.197	30.4717	-94.4412	230.431	40.0149	-30.4807	237.53	43.0878	-49.0399	246.167	46.0465	-63.3572	205.179	55.8664	-4.82853	210.614	57.846	22.691	184.128	57.9262	4.51946	
275	2.29167	161.508	32.6704	13.5868	150.227	9.8865	-6.58678	151.548	-0.65035	-26.4611	150.031	-14.816	-43.5647	165.305	34.7667	-49.9189	162.1	7.3485	-63.6159	166.173	-18.8264	-48.226	189.501	40.8391	-58.1745	186.005	23.9347	-82.2038	185.982	0.50447	-92.5422	210.249	42.5796	-47.0845	213.507	35.5963	-72.4645	209.438	25.4997	-90.9349	230.461	38.4039	-34.9672	234.09	39.1193	-51.735	243.947	43.6713	-63.7031	208.435	51.6369	-9.45002	206.171	57.7933	19.3977	184.173	56.4563	5.09844	
276	2.3	161.099	31.0367	16.8295	149.471	6.2856	-1.95917	146.494	-8.58192	-20.5053	149.777	-22.7907	-38.937	163.279	28.9608	-49.2276	164.846	2.28821	-61.9411	166.56	-24.6344	-44.7523	184.601	34.1562	-55.4933	186.211	14.5443	-80.6796	187.815	-9.14171	-89.2334	207.299	36.2303	-52.8864	209.836	27.2135	-75.1557	210.458	16.312	-89.2349	225.71	34.8441	-36.0586	233.268	33.6077	-52.4102	244.234	38.4897	-64.0818	204.301	48.8557	-10.0633	208.497	54.9718	19.1686	182.605	54.4004	2.16722	
277	2.30833	161.566	28.146	11.8358	152.661	4.40802	-2.27955	148.424	-13.3673	-19.5489	152.561	-26.6129	-30.7425	163.66	19.2737	-50.5583	161.544	-6.22496	-58.0785	170.677	-31.1082	-39.7356	186.427	25.8618	-56.1079	185.782	6.62333	-76.2431	188.693	-25.8091	-83.1759	205.703	28.2021	-52.0102	211.666	18.5949	-70.1441	207.617	2.41737	-89.9517	227.045	27.799	-32.6516	237.796	25.9462	-49.7894	243.059	28.7595	-65.7828	205.05	46.1424	-9.79471	205.233	55.8311	17.5904	177.101	53.3607	1.2935	
278	2.31667	157.195	26.3036	13.6288	152.191	1.16548	-1.86022	149.033	-16.9178	-16.2902	153.78	-33.2486	-31.1039	160.803	14.2514	-49.0509	162.547	-13.9408	-55.2316	169.569	-33.3288	-39.9773	188.159	18.1999	-56.0368	184.382	-1.09934	-73.169	184.938	-30.6725	-77.6423	204.816	22.3946	-51.3373	209.569	9.84453	-69.6099	209.495	-8.48175	-83.6214	226.37	24.6645	-30.9321	236.271	21.2394	-44.8394	245.727	23.8233	-64.6019	203.807	43.4403	-10.2313	206.761	55.6866	16.4777	175.916	50.5585	0.255836	
279	2.325	157.377	26.7618	15.4909	150.157	-0.861246	2.61299	147.137	-19.3715	-11.6091	154.213	-34.4687	-25.0689	164.925	10.6237	-48.4725	164.977	-17.4465	-53.6458	164.795	-38.183	-39.2998	187.193	14.4707	-53.6433	186.48	-9.90969	-71.5866	185.917	-35.364	-72.9344	204.625	18.4335	-48.5089	209.066	2.56469	-67.0308	209.26	-15.879	-77.4478	228.806	21.0668	-28.4101	236.661	16.481	-44.2341	243.509	18.0246	-63.3667	205.922	43.9121	-5.93132	201.609	54.8622	14.402	177.47	51.064	0.0405491	
280	2.33333	155.695	26.1052	17.694	151.426	-0.748819	4.98082	152.972	-21.4542	-13.6673	158.038	-39.3595	-24.9678	166.172	9.27899	-46.5987	163.581	-20.691	-53.0519	165.497	-42.2243	-36.5596	187.044	9.90812	-55.9613	188.457	-10.9597	-67.7084	187.597	-42.4974	-67.7416	203.421	14.2615	-48.7203	205.994	-1.14208	-63.4088	208.143	-26.4263	-70.8275	224.694	20.7592	-27.7593	236.425	13.6744	-44.8749	242.298	9.1484	-63.9264	202.125	42.1692	-10.3323	202.173	54.2391	13.9068	175.238	47.6636	-1.86425	
281	2.34167	155.671	25.8837	16.0376	151.963	-3.67536	2.79694	155.863	-21.238	-12.1889	161.332	-40.5521	-23.1033	165.02	8.64826	-44.8379	162.232	-19.7278	-52.2347	167.818	-41.7623	-40.3053	187.688	10.9248	-51.5577	184.605	-16.3616	-67.2291	189.717	-43.6915	-64.0484	206.91	13.8857	-41.9747	206.825	-8.54107	-60.3044	203.264	-34.1905	-61.3146	224.214	19.0602	-27.0422	233.62	10.6456	-43.3592	245.471	1.41568	-61.2976	200.729	40.8548	-7.63548	199.056	53.7322	14.831	173.477	48.3938	-0.322319	
282	2.35	154.236	24.5709	16.0123	149.875	-5.67269	4.71092	155.063	-22.5081	-8.23427	165.534	-39.1673	-20.8448	161.199	4.40501	-46.0047	166.131	-20.2817	-53.2567	170.156	-44.3891	-40.2403	188.928	7.04597	-52.5854	187.784	-18.5121	-65.1762	188.754	-46.9201	-61.6898	205.49	8.88472	-45.3058	206.928	-13.0471	-56.0294	202.146	-36.8786	-54.3217	223.989	18.6922	-25.963	234.244	6.90019	-44.8382	238.835	-4.78237	-60.8588	202.471	43.1446	-7.37124	197.277	55.1804	17.3534	171.976	48.4865	-1.6571	
283	2.35833	155.964	24.4446	15.9256	153.903	-6.01823	2.71549	160.274	-22.9936	-10.0504	171.797	-37.418	-22.2193	162.008	8.09726	-44.8127	166.252	-22.2779	-54.084	167.855	-46.2876	-42.3314	186.211	9.06067	-50.0337	189.183	-17.2355	-64.3181	191.036	-46.0005	-62.0733	208.361	9.95695	-42.4415	208.083	-15.5773	-54.7878	204.923	-38.1502	-50.3715	225.827	18.5059	-24.8729	235.321	6.77915	-41.5765	236.409	-8.12472	-56.0454	201.101	41.5641	-7.73809	201.49	55.2211	15.8931	172.878	49.1141	-0.362041	
284	2.36667	158.17	25.3162	16.176	154.131	-6.36389	2.63096	159.016	-22.4757	-8.7126	174.274	-41.1182	-24.0663	162.05	8.6263	-44.5613	163.754	-19.3979	-55.8347	166.099	-45.5569	-44.8012	186.315	8.88438	-51.8061	187.35	-17.4061	-66.6739	187.884	-46.4661	-63.4712	206.859	9.39222	-45.0108	209.034	-13.4657	-53.5545	201.838	-40.2619	-47.3777	223.057	17.1186	-30.2412	230.074	4.24324	-46.8007	234.102	-10.1989	-56.3688	203.758	41.1502	-8.41907	200.253	57.0207	16.2928	177.127	50.3333	0.0942548	
285	2.375	159.149	24.5284	12.7519	157.969	-4.76432	1.17356	161.87	-23.3335	-11.0207	177.633	-37.4868	-23.4919	163.114	7.97638	-46.223	168.166	-18.492	-56.1067	167.386	-43.9627	-47.2626	185.308	10.5154	-51.2042	187.347	-16.7827	-66.6777	190.918	-44.0267	-64.5484	208.166	8.15865	-45.0359	207.747	-12.8599	-54.4901	204.941	-40.0411	-45.1514	227.001	17.6168	-30.5224	232.077	4.27932	-47.0269	236.513	-9.47984	-57.1418	200.137	43.8662	-8.52975	200.094	54.2616	11.3614	174.635	49.5612	0.928267	
286	2.38333	160.409	22.7796	12.4583	157.744	-7.41673	0.234156	163.608	-25.9306	-12.7687	180.237	-39.4109	-24.8788	166.833	7.65107	-47.0115	167.346	-16.5874	-57.3072	168.549	-43.1646	-49.306	189.418	8.12422	-54.7735	192.294	-14.1699	-67.012	188.755	-45.7766	-64.3283	207.618	8.04293	-46.6499	206.649	-17.4241	-54.3893	201.953	-37.6399	-45.2722	226.54	18.3577	-27.7505	232.608	5.84714	-45.132	236.766	-13.6628	-58.695	203.121	42.069	-7.79307	200.537	54.3266	14.2582	173.034	48.9652	-1.63253	
287	2.39167	156.852	23.3941	14.4744	157.632	-7.43005	0.427673	163.429	-24.9876	-14.1087	182.039	-35.743	-26.1325	165.596	8.50019	-48.0352	163.906	-17.8935	-58.6367	170.516	-45.7034	-48.6541	185.657	10.2108	-52.5291	190.179	-13.4767	-68.2295	188.387	-47.3846	-64.7132	210.184	8.37177	-44.4382	206.828	-19.1603	-54.6849	203.151	-43.722	-42.0561	228.04	16.9216	-30.5105	234.681	2.05183	-47.8875	233.65	-10.4369	-57.798	205.266	42.9759	-9.53661	202.34	52.2289	10.6873	172.775	46.4383	-1.35857	
288	2.4	155.824	22.9411	15.7038	155.64	-8.93426	-2.11434	166.092	-25.9977	-17.2864	183.722	-38.9522	-28.8406	167.249	7.17367	-49.0322	168.052	-17.1869	-59.8672	171.724	-45.4216	-48.5351	188.263	8.06554	-56.3134	192.064	-16.5108	-68.3302	188.962	-44.2948	-66.2565	205.625	9.0344	-43.7747	207.777	-17.546	-54.2492	198.582	-41.4431	-42.3986	227.75	16.5417	-32.0319	235.617	6.01986	-44.8576	232.836	-16.1962	-60.0784	202.461	43.2322	-7.82777	197.529	53.9973	9.7285	177.072	46.7638	-0.493764	
289	2.40833	156.768	23.3013	13.2413	155.061	-7.75039	-0.0116619	162.737	-26.9123	-14.1227	182.587	-35.3041	-25.2025	163.666	7.50172	-48.5532	168.938	-18.1296	-58.9738	168.737	-42.7866	-50.2195	185.316	9.04062	-54.1424	192.391	-13.8279	-67.7429	193.148	-44.9284	-64.9195	206.809	6.04178	-46.4039	208.831	-19.8309	-53.9369	202.959	-41.5328	-41.0292	228.181	16.3159	-33.061	231.079	3.19336	-47.8645	234.467	-12.6584	-57.0678	205.376	41.17	-7.30835	202.063	54.4326	12.9862	174.305	48.3925	-3.44545	
290	2.41667	155.522	22.3863	13.7158	157.423	-9.52452	-1.56761	167.731	-26.0288	-17.257	186.014	-37.3458	-28.6411	162.635	4.02417	-50.4075	169.026	-22.1061	-59.0739	171.727	-43.0247	-50.1661	187.723	6.3372	-55.6093	190.598	-18.1287	-68.4848	192.029	-48.1202	-63.1384	205.007	6.98013	-44.7145	207.684	-20.5888	-52.1222	199.664	-41.8627	-39.8395	227.403	17.0226	-27.7472	229.869	1.90012	-47.7724	237.277	-16.9632	-57.7348	204.995	40.6458	-9.32979	201.158	53.6979	11.5403	174.34	46.8022	-4.22552	
291	2.425	158.75	21.241	11.8425	156.147	-10.9748	-0.88897	168.431	-24.4678	-14.5626	186.254	-39.526	-27.4829	164.803	3.79735	-48.7632	168.592	-20.7118	-57.4468	170.38	-47.4221	-46.105	189.265	7.35793	-52.1514	190.565	-18.8147	-66.9982	191.296	-47.5762	-63.3485	206.407	3.708	-47.0093	207.51	-18.6664	-52.0935	198.528	-42.0863	-37.3813	227.014	15.3497	-28.4471	233.879	0.778263	-46.0949	238.462	-17.7133	-56.77	202.525	41.1256	-10.6215	197.999	50.9467	9.84253	175.324	48.2949	-1.14298	
292	2.43333	157.153	21.4629	13.8157	155.106	-9.84214	2.78716	168.244	-29.0601	-15.8839	186.286	-40.7583	-26.4402	164.843	3.98892	-47.0623	167.618	-22.3485	-56.9142	169.876	-47.505	-44.7654	188.374	4.09201	-53.7761	190.78	-18.4989	-65.82	195.738	-50.5833	-60.2383	209.224	3.77684	-45.176	206.481	-24.7641	-48.8264	203.561	-41.8681	-35.6444	223.996	15.8741	-28.5225	233.911	-0.881023	-46.147	236.219	-18.1621	-57.2559	203.441	40.1337	-14.0407	200.559	54.7585	11.8902	174.089	46.7211	-3.63041	
293	2.44167	155.289	19.2808	11.039	158.96	-8.2003	1.61563	168.211	-25.9849	-11.3989	184.149	-42.5403	-23.8079	166.035	2.32064	-47.0584	168.134	-27.2545	-55.0281	169.601	-47.7329	-43.9424	189.43	3.99841	-51.9848	189.438	-25.351	-65.3858	192.802	-51.6956	-60.051	206.375	1.47888	-42.9488	207.715	-27.0071	-46.1072	200.038	-44.8164	-30.9247	223.399	12.2029	-31.7046	231.125	-1.64025	-44.3741	235.148	-17.3653	-53.5291	199.537	38.7731	-9.56129	199.172	55.072	12.8833	170.74	45.5556	-1.42218	
294	2.45	155.496	20.0482	14.1451	155.476	-10.8607	2.71728	165.839	-26.7538	-8.837	185.279	-40.7359	-22.3447	166.746	0.523603	-46.4823	166.5	-29.3165	-54.6367	168.244	-49.4993	-41.8799	189.673	2.10774	-51.2983	192.988	-27.37	-61.787	194.675	-54.7169	-55.8161	203.808	2.27469	-40.9181	206.472	-28.625	-43.638	197.35	-46.2361	-27.6823	226.117	13.1974	-26.8048	234.647	-2.02072	-41.6679	233.741	-18.7244	-54.6902	200.294	39.4881	-11.9683	194.955	53.3985	13.7871	172.448	46.5413	-2.39571	
